<?xml version="1.0" encoding="UTF-8"?> <svg xmlns="http://www.w3.org/2000/svg" id="Layer_1" data-name="Layer 1" viewBox="0 0 245.77 72.06"><defs><style>.cls-1{fill:#134247;}.cls-2{fill:#1ab793;}</style></defs><path class="cls-1" d="M82.16,52.63A197.17,197.17,0,0,1,65.35,41.85c-4-2.91-6.63-3.93-10.13-1.59-6.59,4.42-13.29,8.68-19.95,13-2.44,1.58-5,2.83-6.14,5.77l0,.35v.09h0V93.73a5.1,5.1,0,0,0,.34-1.27v.11a5,5,0,0,1-.34,1.27v.36c0-.36.06.87.18,1.17.53,1.39,1.9,2,3.14,2.8,5.74,3.71,11.46,7.45,17.2,11.16.88.57,1.8,1.08,2.71,1.62a.5.5,0,0,0,.27.07h1.61s0,0,0,0a7.4,7.4,0,0,0,5-7.14c0-1.94,0-3.88,0-5.82a6.51,6.51,0,0,0-3.44-6.27c-2.33-1.44-4.6-3-6.92-4.45a6.06,6.06,0,0,1-3-5.33c0-3.58,0-7.16,0-10.74a6.13,6.13,0,0,1,3.29-5.47c2.32-1.37,4.52-2.95,6.79-4.42a5.63,5.63,0,0,1,6.86.17c2.22,1.52,4.5,2.94,6.76,4.39A5.35,5.35,0,0,0,75.8,66c2.47-1.58,5-3.13,7.36-4.8a5.69,5.69,0,0,0,1.91-2.11C86.3,56.58,85,54.33,82.16,52.63Z" transform="translate(-29.1 -38.97)"></path><path class="cls-2" d="M97.78,74.05c0,.84,0,1.67,0,2.51a5.58,5.58,0,0,1-2.93,5.34Q85,88.24,75.15,94.67a5.06,5.06,0,0,1-6,0Q61.2,89.49,53.25,84.28a5.46,5.46,0,0,1-2.73-5.08c.07-1.85,0-3.7,0-5.55a5.15,5.15,0,0,1,2.64-4.75c1-.6,1.92-1.21,2.87-1.84a5.06,5.06,0,0,1,6,0c2.4,1.57,4.86,3,7.2,4.7s4.35,1.49,6.61,0c3.3-2.26,6.73-4.33,10-6.58A5.43,5.43,0,0,1,92.44,65c.85.54,1.76,1,2.63,1.53a5,5,0,0,1,2.71,4.7C97.76,72.14,97.78,73.1,97.78,74.05Z" transform="translate(-29.1 -38.97)"></path><path class="cls-1" d="M137.84,65.19l-4,4.29a1,1,0,0,1-1.33.1,8.34,8.34,0,0,0-5.11-1.5c-5.15,0-8.62,3.41-8.62,9.58s3.6,9.57,8.55,9.57a8.32,8.32,0,0,0,5.18-1.55,1.07,1.07,0,0,1,1.46.1l3.9,4.28a1,1,0,0,1-.14,1.46,18.3,18.3,0,0,1-11,3.3c-11,0-17.42-7.46-17.42-17.16,0-9.45,6.11-17.16,17.48-17.16a18,18,0,0,1,10.92,3.22A1,1,0,0,1,137.84,65.19Z" transform="translate(-29.1 -38.97)"></path><path class="cls-1" d="M176.59,80.42H154.37a1,1,0,0,0-1,1.25c1.13,4.17,4.12,6.21,8.35,6.21a17.44,17.44,0,0,0,8.72-2.63,1,1,0,0,1,1.27.2l3,3.51a1,1,0,0,1-.08,1.36,19.56,19.56,0,0,1-13.13,4.5c-11.63,0-17.68-7.71-17.68-17.29,0-9.32,5.92-17,17.42-17,10.8,0,16.52,6.81,16.52,16.13a22.08,22.08,0,0,1-.19,2.93A1,1,0,0,1,176.59,80.42Zm-23.17-6.91a1,1,0,0,0,1,1.25H169V74c0-4.43-3.22-6.49-7.39-6.49C157.15,67.5,154.46,69.71,153.42,73.51Z" transform="translate(-29.1 -38.97)"></path><path class="cls-1" d="M205.39,60.56v6.69a1,1,0,0,1-1.12,1,8.81,8.81,0,0,0-1.12-.08c-2.88,0-4.54.91-7.11,4.09a1,1,0,0,0-.22.63V92.74a1,1,0,0,1-1,1h-7.6a1,1,0,0,1-1-1V62.58a1,1,0,0,1,1-1h6.55a1,1,0,0,1,1,.87l.16,1.32a1,1,0,0,0,1.7.56c2.78-2.94,4.77-3.84,7.75-3.84A6.17,6.17,0,0,1,205.39,60.56Z" transform="translate(-29.1 -38.97)"></path><path class="cls-1" d="M227.68,68.66a.5.5,0,0,0-.5.5v9.59c0,5.14.71,8.81,5.53,8.81.58,0,1,0,1.53,0a.5.5,0,0,1,.53.49v6.15a.51.51,0,0,1-.47.49c-1.29.11-2.19.16-2.94.16-12,0-13.75-7.46-13.75-16.07V69.16a.5.5,0,0,0-.5-.5h-3.89a.5.5,0,0,1-.5-.5V62.48a.89.89,0,0,1,.89-.89h0a4,4,0,0,0,4-4V52.9a.49.49,0,0,1,.49-.5h8.58a.5.5,0,0,1,.5.5v8.19a.5.5,0,0,0,.5.5h6.59a.5.5,0,0,1,.5.5v6.07a.5.5,0,0,1-.5.5Z" transform="translate(-29.1 -38.97)"></path><path class="cls-1" d="M274.87,74.06V92.74a1,1,0,0,1-1,1h-7.54a1,1,0,0,1-1-1V74.12c0-3.53-2.57-5.91-6.43-5.91-2.23,0-4.29.72-7,3.43a1,1,0,0,0-.3.71V92.74a1,1,0,0,1-1,1H243a1,1,0,0,1-1-1V62.58a1,1,0,0,1,1-1h6.55a1,1,0,0,1,1,.88l.13,1.18a1,1,0,0,0,1.63.63c3.43-2.93,6.2-3.78,9.32-3.78C269.47,60.5,274.87,65.9,274.87,74.06Z" transform="translate(-29.1 -38.97)"></path></svg> 